# Blender v2.76 (sub 0) OBJ File: 'SettlersOfCatan.blend'
# www.blender.org
o Mountain_Plane.001
v -2.000000 0.000000 0.000000
v -1.000000 0.000000 1.732050
v -1.000000 0.000000 -1.732050
v 0.000000 0.362032 0.000000
v -1.800000 0.000054 0.346410
v -1.200000 0.000000 1.385640
v 0.600000 0.000010 1.732050
v 1.800000 0.000000 -0.346410
v 1.600000 0.000000 -0.692820
v 1.400000 0.000031 -1.039230
v 0.200000 0.034699 -1.732050
v 1.200000 0.000000 1.385640
v 1.400000 0.000000 1.039230
v 1.800000 0.004440 0.346410
v 0.400000 0.480868 0.000000
v 0.800000 0.830358 0.000000
v 1.200000 1.118086 0.000000
v 1.600000 0.199739 0.000000
v -1.600000 0.596763 0.000000
v -1.200000 -0.122428 0.000000
v -0.800000 0.660962 0.000000
v -0.400000 0.609010 0.000000
v 0.800000 0.479492 1.385640
v 0.600000 0.587543 1.039230
v 0.400000 0.930301 0.692820
v 0.200000 0.334024 0.346410
v -0.200000 0.322653 0.346410
v -0.400000 0.807613 0.692820
v -0.600000 0.744705 1.039230
v -0.800000 0.987328 1.385640
v -0.800000 0.197848 -1.385640
v -0.600000 0.693802 -1.039230
v -0.400000 0.638060 -0.692820
v -0.200000 0.511892 -0.346410
v 0.800000 0.544158 -1.385641
v 0.600000 0.640520 -1.039230
v 0.400000 0.600781 -0.692820
v 0.200000 0.253474 -0.346410
v 0.400000 0.236205 -1.385640
v 0.000000 0.496600 -1.385640
v 0.200000 0.748734 -1.039230
v -0.400000 0.391173 -1.385640
v -0.200000 0.819193 -1.039230
v 0.000000 0.626871 -0.692820
v 0.600000 0.334913 -0.346410
v 1.000000 0.401539 -0.346410
v 0.800000 0.297576 -0.692820
v 1.400000 0.531995 -0.346410
v 1.200000 0.549928 -0.692820
v 1.000000 0.900709 -1.039230
v 1.000000 0.652726 1.039230
v 1.200000 1.009518 0.692820
v 0.800000 0.310117 0.692820
v 1.400000 0.479630 0.346410
v 1.000000 0.501379 0.346410
v 0.600000 0.798173 0.346410
v -1.000000 0.193922 -1.039230
v -1.200000 1.013782 -0.692820
v -0.800000 0.565845 -0.692820
v -1.400000 0.672209 -0.346410
v -1.000000 0.934306 -0.346410
v -0.600000 0.669678 -0.346410
v -1.400000 0.453934 0.346410
v -1.200000 0.765265 0.692820
v -1.000000 0.753385 0.346410
v -1.000000 0.526464 1.039230
v -0.800000 0.273750 0.692820
v -0.600000 -0.064798 0.346410
v -0.400000 0.260389 1.385640
v 0.000000 0.810008 1.385640
v -0.200000 0.574740 1.039230
v 0.400000 0.218369 1.385640
v 0.200000 0.624094 1.039230
v 0.000000 0.683027 0.692820
v -1.000000 -0.500000 1.732050
v 1.000000 -0.500000 1.732050
v -1.000000 -0.500000 -1.732050
v 1.000000 -0.500000 -1.732051
v -2.000000 -0.500000 0.000000
v 2.000000 -0.500000 0.000000
v 1.000000 0.000000 1.732050
v 2.000000 0.000000 0.000000
v 1.000000 0.000000 -1.732051
v -1.600000 0.000000 0.692820
v -1.400000 0.000277 1.039230
v -0.600000 -0.000000 1.732050
v -0.200000 0.000000 1.732050
v 0.200000 0.000000 1.732050
v 1.200000 0.000136 -1.385641
v 0.600000 0.000000 -1.732051
v -0.200000 0.000520 -1.732050
v -0.600000 0.000030 -1.732050
v -1.200000 0.014487 -1.385640
v -1.400000 0.003939 -1.039230
v -1.600000 0.028161 -0.692820
v -1.800000 0.001454 -0.346410
v 1.600000 0.000034 0.692820
vt 0.568495 1.452123
vt 0.568495 1.261699
vt 0.752259 1.356911
vt 0.752259 -0.166486
vt 0.568495 -0.071274
vt 0.568495 -0.261699
vt 0.936024 -0.261698
vt 0.936024 -0.071274
vt 0.752259 0.023939
vt 0.568495 0.119151
vt 1.119788 0.023939
vt 0.936024 0.119151
vt 0.752259 0.214363
vt 0.568495 0.309576
vt 1.303552 0.119151
vt 1.119788 0.214363
vt 0.936024 0.309576
vt 0.752259 0.404788
vt 0.568495 0.500000
vt 0.384731 0.404788
vt 0.200966 0.309575
vt 0.384731 0.214363
vt 0.017202 0.214363
vt 0.200966 0.119151
vt -0.166563 0.119151
vt 0.017202 0.023939
vt 0.384731 0.023939
vt 0.200966 -0.071274
vt 0.384731 -0.166486
vt -0.166563 -0.071274
vt 0.017202 -0.166486
vt 0.200966 -0.261699
vt -0.350327 0.595212
vt -0.166562 0.690425
vt -0.350327 0.785637
vt -0.166562 0.880849
vt 0.017202 0.785637
vt -0.166563 0.500000
vt 0.017202 0.595212
vt 0.200966 0.690425
vt -0.166563 0.309575
vt 0.017202 0.404788
vt 0.200966 0.500000
vt 0.384731 0.595212
vt -0.350327 0.214363
vt 1.303552 0.309576
vt 1.303553 0.500000
vt 1.119788 0.404788
vt 1.303553 0.690425
vt 1.119788 0.595213
vt 0.936024 0.500000
vt 1.303553 0.880850
vt 1.119788 0.785637
vt 0.936024 0.690425
vt 0.752259 0.595213
vt 1.303553 1.071274
vt 1.487317 0.976062
vt 1.119788 0.976062
vt 0.936024 1.071274
vt 0.936024 0.880850
vt 0.752259 1.166486
vt 0.752259 0.976062
vt 0.752259 0.785637
vt 0.568495 1.071274
vt 0.568495 0.880849
vt 0.568495 0.690425
vt 0.384731 1.166486
vt 0.200966 1.071274
vt 0.384731 0.976062
vt 0.017202 0.976062
vt 0.200966 0.880849
vt 0.384731 0.785637
vt -0.166562 1.071274
vt 2.406138 -0.452123
vt 3.324961 0.023938
vt 2.406139 1.452123
vt -0.350327 0.976061
vt 1.487317 0.785637
vt -0.350327 0.023939
vt 1.487317 0.023939
vt 1.303552 -0.071273
vt 0.752259 -0.356911
vt 0.568495 -0.452123
vt 1.119788 -0.166486
vt 0.384731 -0.356911
vt -0.350327 0.404788
vt 1.487317 0.214364
vt 1.487317 0.404788
vt 1.487317 0.595213
vt 1.119788 1.166486
vt 0.936024 1.261699
vt 0.384731 1.356911
vt 0.200966 1.261698
vt 0.017202 1.166486
vt 3.590202 0.023939
vt 3.324961 -0.166486
vt 3.590202 -0.452123
vt 3.590203 0.976061
vt 3.855444 1.166486
vt 3.590203 1.452123
vt 3.324962 0.595213
vt 3.324961 0.404788
vt 3.855444 -0.261699
vt 3.855444 -0.166486
vt 3.324962 1.261699
vt 3.324962 1.166486
vt 3.855444 0.404787
vt 3.855444 0.595212
vt 3.324961 0.976061
vt 3.324961 -0.452123
vt 3.324961 -0.356911
vt 3.324961 -0.071273
vt 3.324961 -0.261698
vt 3.855444 1.452123
vt 3.855444 1.356911
vt 3.855444 0.976061
vt 3.855444 1.071274
vt 3.855444 1.261698
vt 3.324961 0.214364
vt 3.324962 0.785637
vt 3.855444 0.023938
vt 3.855444 -0.071274
vt 3.855444 -0.452123
vt 3.855444 -0.356911
vt 3.324962 1.071274
vt 3.324962 1.452123
vt 3.324962 1.356911
vt 3.855444 0.785637
vt 3.855444 0.214363
vn -0.817200 0.331100 0.471800
vn -0.529400 0.687600 -0.496900
vn 0.425500 0.653600 -0.625900
vn 0.400500 0.615200 -0.679000
vn 0.161000 0.595000 -0.787400
vn 0.252700 0.933900 0.253000
vn -0.176000 0.667700 -0.723400
vn 0.134300 0.762700 -0.632700
vn 0.158400 0.899200 0.407800
vn 0.060700 0.930100 0.362200
vn 0.045200 0.692300 0.720200
vn -0.301900 0.624700 -0.720100
vn -0.210800 0.672600 -0.709300
vn -0.284400 0.907200 0.310200
vn 0.024600 0.880000 0.474300
vn 0.026400 0.944100 0.328600
vn 0.466900 0.722800 0.509500
vn 0.542000 0.838900 0.050000
vn -0.258300 0.869300 -0.421500
vn -0.539700 0.617700 -0.571900
vn -0.348900 0.485000 -0.801900
vn 0.907100 0.395100 -0.144800
vn -0.176400 0.866500 -0.466900
vn -0.150700 0.740300 0.655200
vn -0.099400 0.596800 -0.796200
vn -0.161100 0.967000 -0.197200
vn 0.584200 0.770700 0.254200
vn 0.552900 0.729400 0.402900
vn -0.151400 0.464200 -0.872700
vn -0.302300 0.926900 0.222500
vn -0.532800 0.844500 0.054200
vn -0.347600 0.551000 0.758700
vn -0.358700 0.551500 0.753100
vn -0.478200 0.735100 -0.480600
vn 0.794000 0.597000 0.114200
vn 0.725700 0.545700 -0.419000
vn 0.741200 0.539100 -0.400000
vn 0.732800 0.533000 -0.423000
vn 0.907800 0.403100 -0.115900
vn 0.765000 0.468800 0.441700
vn 0.610300 0.509100 0.606900
vn -0.149300 0.916200 0.372000
vn 0.593800 0.363900 0.717600
vn -0.868000 0.496400 0.010200
vn -0.120500 0.739700 -0.662000
vn 0.839300 0.541300 0.051000
vn 0.030200 0.554900 -0.831400
vn -0.846500 0.484100 -0.221400
vn 0.468200 0.630900 0.618700
vn 0.809600 0.522100 0.268200
vn -0.624600 0.538200 -0.565900
vn 0.762700 0.642000 -0.078400
vn 0.897800 0.391100 0.202400
vn 0.026300 0.483100 0.875200
vn -0.391200 0.543900 0.742400
vn 0.549700 0.740800 0.386200
vn -0.628500 0.719300 -0.296000
vn -0.747900 0.644600 -0.158600
vn -0.276800 0.931700 0.235100
vn -0.713700 0.571100 -0.405600
vn 0.490500 0.438000 -0.753400
vn -0.762600 0.610200 -0.214900
vn -0.171900 0.952200 0.252500
vn -0.488600 0.745600 0.453100
vn 0.718700 0.641800 -0.267700
vn 0.479700 0.725000 -0.494200
vn -0.174500 0.966400 -0.188900
vn 0.364000 0.922800 0.125900
vn 0.745900 0.414900 0.521000
vn -0.223800 0.341600 0.912800
vn -0.670900 0.342600 0.657700
vn 0.522500 0.789700 0.321500
vn 0.128200 0.986800 0.098800
vn 0.366500 0.929100 -0.048900
vn 0.524300 0.849100 0.064600
vn -0.749000 0.502000 0.432400
vn -0.613000 0.540200 0.576600
vn 0.836100 0.465000 -0.291000
vn -0.561400 0.749900 -0.349900
vn -0.306800 0.409800 -0.859000
vn -0.751700 0.383800 -0.536400
vn 0.775600 0.631200 -0.012700
vn 0.713500 0.580700 0.392000
vn 0.894800 0.437500 0.089100
vn 0.833700 0.407600 0.372600
vn 0.057500 0.442900 0.894700
vn -0.926200 0.375300 0.035500
vn -0.357500 0.655300 -0.665400
vn -0.353000 0.647000 -0.675800
vn -0.754600 0.565400 -0.333000
vn -0.552500 0.413900 -0.723500
vn -0.403000 0.416100 -0.815200
vn -0.493100 0.509100 0.705500
vn 0.487800 0.790000 0.371400
vn 0.864000 0.475400 0.165800
vn -0.806700 0.587100 0.067000
vn 0.268200 0.631300 0.727700
vn 0.364000 0.856600 0.365700
vn 0.815700 0.551500 0.175000
vn -0.104900 0.849800 -0.516600
vn -0.119100 0.965200 0.233000
vn 0.269100 0.864000 0.425500
vn 0.193700 0.621900 -0.758800
vn -0.417900 0.640100 0.644700
vn -0.473500 0.725400 0.499600
vn 0.060800 0.665300 0.744100
vn 0.066500 0.728200 0.682100
vn -0.479800 0.776200 0.409100
vn -0.343200 0.555200 -0.757600
vn -0.019900 0.698600 -0.715300
vn -0.028300 0.994900 0.096800
vn 0.000000 -1.000000 -0.000000
vn 0.000000 0.585600 0.810600
vn -0.749700 0.502500 -0.430700
vn 0.433800 0.868700 0.239300
vn 0.432600 0.866300 -0.249800
vn -0.000100 0.868400 -0.495900
vn 0.000000 0.537000 -0.843600
vn 0.073100 0.843100 -0.532700
vn -0.050000 0.585300 -0.809300
vn -0.000800 0.663200 -0.748400
vn -0.455100 0.591200 -0.665900
vn -0.160200 0.607700 -0.777800
vn -0.345600 0.715000 -0.607800
vn 0.808300 0.359000 -0.466600
vn 0.548800 0.403500 -0.732100
vn 0.730400 0.537100 -0.421900
vn 0.702000 0.585600 0.405300
vn 0.819100 0.324600 0.473000
vn 0.697700 0.587300 0.410300
vn 0.929300 0.368200 -0.026700
vn -0.401400 0.875700 -0.268400
vn -0.419000 0.882200 -0.215000
vn -0.808000 0.327900 -0.489400
vn -0.781300 0.466000 -0.415200
vn -0.406100 0.885900 -0.224400
vn -0.165900 0.349200 -0.922200
vn -0.914400 0.371100 -0.162000
vn -0.801700 0.478100 -0.358700
vn -0.688400 0.606700 0.397500
vn -0.789100 0.412400 0.455200
vn -0.723200 0.549800 0.418000
vn -0.882200 0.461100 0.094900
vn -0.598600 0.455000 0.659300
vn 0.000000 0.331100 0.943600
vn 0.000000 0.799400 0.600900
vn 0.000000 0.393200 0.919400
vn -0.000000 0.846000 0.533300
vn 0.661600 0.364000 0.655600
vn -0.598300 0.435400 0.672700
vn 0.637000 0.430700 0.639300
vn -0.000000 -0.000000 -1.000000
vn 0.000000 0.000000 1.000000
vn -0.866000 0.000000 -0.500000
vn 0.866000 -0.000000 -0.500000
vn -0.866000 -0.000000 0.500000
vn 0.866000 0.000000 0.500000
s off
f 2/1/1 30/2/1 6/3/1
f 39/4/2 36/5/2 35/6/2
f 11/7/3 40/8/3 39/4/3
f 40/8/4 41/9/4 39/4/4
f 39/4/5 41/9/5 36/5/5
f 41/9/6 37/10/6 36/5/6
f 42/11/7 43/12/7 40/8/7
f 40/8/8 43/12/8 41/9/8
f 43/12/9 44/13/9 41/9/9
f 41/9/10 44/13/10 37/10/10
f 44/13/11 38/14/11 37/10/11
f 31/15/12 32/16/12 42/11/12
f 42/11/13 32/16/13 43/12/13
f 32/16/14 33/17/14 43/12/14
f 43/12/15 33/17/15 44/13/15
f 33/17/16 34/18/16 44/13/16
f 44/13/17 34/18/17 38/14/17
f 34/18/18 4/19/18 38/14/18
f 15/20/19 38/14/19 4/19/19
f 16/21/20 45/22/20 15/20/20
f 17/23/21 46/24/21 16/21/21
f 18/25/22 48/26/22 17/23/22
f 15/20/23 45/22/23 38/14/23
f 45/22/24 37/10/24 38/14/24
f 16/21/25 46/24/25 45/22/25
f 46/24/26 47/27/26 45/22/26
f 45/22/27 47/27/27 37/10/27
f 47/27/28 36/5/28 37/10/28
f 17/23/29 48/26/29 46/24/29
f 48/26/30 49/28/30 46/24/30
f 46/24/31 49/28/31 47/27/31
f 49/28/32 50/29/32 47/27/32
f 47/27/33 50/29/33 36/5/33
f 50/29/34 35/6/34 36/5/34
f 18/25/35 8/30/35 48/26/35
f 8/30/36 9/31/36 48/26/36
f 48/26/37 9/31/37 49/28/37
f 9/31/38 10/32/38 49/28/38
f 49/28/39 10/32/39 50/29/39
f 13/33/40 51/34/40 12/35/40
f 12/35/41 51/34/41 23/36/41
f 51/34/42 24/37/42 23/36/42
f 13/33/43 52/38/43 51/34/43
f 52/38/44 53/39/44 51/34/44
f 51/34/45 53/39/45 24/37/45
f 53/39/46 25/40/46 24/37/46
f 54/41/47 55/42/47 52/38/47
f 52/38/48 55/42/48 53/39/48
f 55/42/49 56/43/49 53/39/49
f 53/39/50 56/43/50 25/40/50
f 56/43/51 26/44/51 25/40/51
f 14/45/52 18/25/52 54/41/52
f 18/25/53 17/23/53 54/41/53
f 54/41/54 17/23/54 55/42/54
f 17/23/55 16/21/55 55/42/55
f 55/42/56 16/21/56 56/43/56
f 16/21/57 15/20/57 56/43/57
f 56/43/58 15/20/58 26/44/58
f 15/20/59 4/19/59 26/44/59
f 57/46/60 32/16/60 31/15/60
f 58/47/61 59/48/61 57/46/61
f 57/46/62 59/48/62 32/16/62
f 59/48/63 33/17/63 32/16/63
f 60/49/64 61/50/64 58/47/64
f 58/47/65 61/50/65 59/48/65
f 61/50/66 62/51/66 59/48/66
f 59/48/67 62/51/67 33/17/67
f 62/51/68 34/18/68 33/17/68
f 19/52/69 20/53/69 60/49/69
f 60/49/70 20/53/70 61/50/70
f 20/53/71 21/54/71 61/50/71
f 61/50/72 21/54/72 62/51/72
f 21/54/73 22/55/73 62/51/73
f 62/51/74 22/55/74 34/18/74
f 22/55/75 4/19/75 34/18/75
f 5/56/76 19/52/76 1/57/76
f 5/56/77 63/58/77 19/52/77
f 63/58/78 20/53/78 19/52/78
f 64/59/79 65/60/79 63/58/79
f 63/58/80 65/60/80 20/53/80
f 65/60/81 21/54/81 20/53/81
f 66/61/82 67/62/82 64/59/82
f 64/59/83 67/62/83 65/60/83
f 67/62/84 68/63/84 65/60/84
f 65/60/85 68/63/85 21/54/85
f 68/63/86 22/55/86 21/54/86
f 6/3/87 30/2/87 66/61/87
f 30/2/88 29/64/88 66/61/88
f 66/61/89 29/64/89 67/62/89
f 29/64/90 28/65/90 67/62/90
f 67/62/91 28/65/91 68/63/91
f 28/65/92 27/66/92 68/63/92
f 68/63/93 27/66/93 22/55/93
f 27/66/94 4/19/94 22/55/94
f 69/67/95 29/64/95 30/2/95
f 70/68/96 71/69/96 69/67/96
f 69/67/97 71/69/97 29/64/97
f 71/69/98 28/65/98 29/64/98
f 72/70/99 73/71/99 70/68/99
f 70/68/100 73/71/100 71/69/100
f 73/71/101 74/72/101 71/69/101
f 71/69/102 74/72/102 28/65/102
f 74/72/103 27/66/103 28/65/103
f 7/73/104 23/36/104 72/70/104
f 23/36/105 24/37/105 72/70/105
f 72/70/106 24/37/106 73/71/106
f 24/37/107 25/40/107 73/71/107
f 73/71/108 25/40/108 74/72/108
f 25/40/109 26/44/109 74/72/109
f 74/72/110 26/44/110 27/66/110
f 26/44/111 4/19/111 27/66/111
f 77/74/112 78/75/112 76/76/112
f 81/77/113 23/36/113 7/73/113
f 1/57/114 19/52/114 96/78/114
f 82/79/115 18/25/115 14/45/115
f 82/79/116 8/30/116 18/25/116
f 3/80/117 31/15/117 92/81/117
f 90/82/118 35/6/118 83/83/118
f 11/7/119 39/4/119 90/82/119
f 91/84/120 40/8/120 11/7/120
f 92/81/121 42/11/121 91/84/121
f 90/82/122 39/4/122 35/6/122
f 91/84/123 42/11/123 40/8/123
f 92/81/124 31/15/124 42/11/124
f 10/32/125 89/85/125 50/29/125
f 50/29/126 89/85/126 35/6/126
f 89/85/127 83/83/127 35/6/127
f 12/35/128 23/36/128 81/77/128
f 97/86/129 52/38/129 13/33/129
f 14/45/130 54/41/130 97/86/130
f 97/86/131 54/41/131 52/38/131
f 93/87/132 31/15/132 3/80/132
f 94/88/133 57/46/133 93/87/133
f 95/89/134 58/47/134 94/88/134
f 96/78/135 60/49/135 95/89/135
f 93/87/136 57/46/136 31/15/136
f 94/88/137 58/47/137 57/46/137
f 95/89/138 60/49/138 58/47/138
f 96/78/139 19/52/139 60/49/139
f 84/90/140 63/58/140 5/56/140
f 85/91/141 64/59/141 84/90/141
f 6/3/142 66/61/142 85/91/142
f 84/90/143 64/59/143 63/58/143
f 85/91/144 66/61/144 64/59/144
f 86/92/145 30/2/145 2/1/145
f 87/93/146 69/67/146 86/92/146
f 88/94/147 70/68/147 87/93/147
f 7/73/148 72/70/148 88/94/148
f 86/92/149 69/67/149 30/2/149
f 87/93/150 70/68/150 69/67/150
f 88/94/151 72/70/151 70/68/151
f 77/95/152 91/96/152 78/97/152
f 76/98/153 88/99/153 75/100/153
f 95/101/154 94/102/154 79/98/154
f 78/97/155 10/103/155 9/104/155
f 85/105/156 84/106/156 75/100/156
f 80/95/157 97/107/157 13/108/157
f 76/76/112 75/57/112 77/74/112
f 79/80/112 77/74/112 75/57/112
f 78/75/112 80/109/112 76/76/112
f 83/110/152 78/97/152 90/111/152
f 77/95/152 3/75/152 92/112/152
f 91/96/152 11/113/152 78/97/152
f 77/95/152 92/112/152 91/96/152
f 90/111/152 78/97/152 11/113/152
f 2/114/153 75/100/153 86/115/153
f 76/98/153 81/116/153 7/117/153
f 88/99/153 87/118/153 75/100/153
f 76/98/153 7/117/153 88/99/153
f 86/115/153 75/100/153 87/118/153
f 3/75/154 77/95/154 93/119/154
f 79/98/154 1/109/154 96/120/154
f 96/120/154 95/101/154 79/98/154
f 94/102/154 93/119/154 77/95/154
f 77/95/154 79/98/154 94/102/154
f 82/121/155 80/95/155 8/122/155
f 78/97/155 83/123/155 89/124/155
f 8/122/155 80/95/155 9/104/155
f 78/97/155 89/124/155 10/103/155
f 9/104/155 80/95/155 78/97/155
f 1/109/156 79/98/156 5/125/156
f 75/100/156 2/126/156 6/127/156
f 6/127/156 85/105/156 75/100/156
f 84/106/156 5/125/156 79/98/156
f 79/98/156 75/100/156 84/106/156
f 81/116/157 76/98/157 12/128/157
f 80/95/157 82/121/157 14/129/157
f 12/128/157 76/98/157 13/108/157
f 80/95/157 14/129/157 97/107/157
f 13/108/157 76/98/157 80/95/157
