# Blender v2.76 (sub 0) OBJ File: 'SettlersOfCatan.blend'
# www.blender.org
o Village_Cube.003
v -0.200000 0.000000 0.300000
v -0.200000 0.400000 0.300000
v -0.200000 0.000000 -0.300000
v -0.200000 0.400000 -0.300000
v 0.200000 0.000000 0.300000
v 0.200000 0.400000 0.300000
v 0.200000 0.000000 -0.300000
v 0.200000 0.400000 -0.300000
v 0.000000 0.600000 -0.300000
v 0.000000 0.600000 0.300000
vt 1.000000 0.000000
vt 1.000000 1.000000
vt 0.000000 1.000000
vt 0.793893 0.095491
vt 0.206107 0.095492
vt 0.024472 0.654509
vt 0.000000 0.000000
vt 0.500000 1.000000
vt 0.975528 0.654508
vn -1.000000 0.000000 0.000000
vn 0.000000 0.000000 -1.000000
vn 1.000000 0.000000 0.000000
vn 0.000000 0.000000 1.000000
vn 0.000000 -1.000000 0.000000
vn -0.707100 0.707100 0.000000
vn 0.707100 0.707100 0.000000
s off
f 4/1/1 3/2/1 1/3/1
f 8/4/2 7/5/2 3/6/2
f 6/1/3 5/2/3 7/3/3
f 2/4/4 1/5/4 5/6/4
f 3/1/5 7/2/5 5/3/5
f 9/1/6 4/2/6 2/3/6
f 8/1/7 9/2/7 10/3/7
f 2/7/1 4/1/1 1/3/1
f 3/6/2 4/8/2 8/4/2
f 9/9/2 8/4/2 4/8/2
f 8/7/3 6/1/3 7/3/3
f 5/6/4 6/8/4 2/4/4
f 10/9/4 2/4/4 6/8/4
f 1/7/5 3/1/5 5/3/5
f 10/7/6 9/1/6 2/3/6
f 6/7/7 8/1/7 10/3/7
