# Blender v2.76 (sub 0) OBJ File: 'SettlersOfCatan.blend'
# www.blender.org
o Wheat_Plane.004
v -2.000000 0.000000 0.000000
v -1.000000 -0.000000 1.732050
v -1.000000 -0.000000 -1.732050
v 0.000000 -0.042449 0.000000
v -1.800000 0.000001 0.346410
v -1.200000 -0.000000 1.385640
v 0.600000 0.000000 1.732050
v 1.800000 0.000000 -0.346410
v 1.600000 -0.000000 -0.692820
v 1.400000 -0.000002 -1.039230
v 0.200000 -0.001571 -1.732050
v 1.200000 0.000000 1.385640
v 1.400000 0.000000 1.039230
v 1.800000 -0.000043 0.346410
v 0.400000 -0.061878 0.000000
v 0.800000 -0.091227 0.000000
v 1.200000 -0.067268 0.000000
v 1.600000 -0.011265 0.000000
v -1.600000 0.023366 0.000000
v -1.200000 0.038306 0.000000
v -0.800000 0.034180 0.000000
v -0.400000 -0.005027 0.000000
v 0.800000 0.020251 1.385640
v 0.600000 -0.026548 1.039230
v 0.400000 -0.052110 0.692820
v 0.200000 -0.057163 0.346410
v -0.200000 -0.008927 0.346410
v -0.400000 -0.027044 0.692820
v -0.600000 -0.003522 1.039230
v -0.800000 -0.024325 1.385640
v -0.800000 -0.084266 -1.385640
v -0.600000 -0.054379 -1.039230
v -0.400000 -0.055233 -0.692820
v -0.200000 -0.078983 -0.346410
v 0.800000 -0.056966 -1.385641
v 0.600000 -0.054136 -1.039230
v 0.400000 -0.078278 -0.692820
v 0.200000 -0.080331 -0.346410
v 0.400000 -0.021829 -1.385640
v 0.000000 -0.030745 -1.385640
v 0.200000 -0.062090 -1.039230
v -0.400000 -0.051448 -1.385640
v -0.200000 -0.074401 -1.039230
v 0.000000 -0.092849 -0.692820
v 0.600000 -0.116663 -0.346410
v 1.000000 -0.104981 -0.346410
v 0.800000 -0.097784 -0.692820
v 1.400000 -0.041910 -0.346410
v 1.200000 -0.074348 -0.692820
v 1.000000 -0.057140 -1.039230
v 1.000000 -0.002455 1.039230
v 1.200000 -0.025226 0.692820
v 0.800000 -0.057314 0.692820
v 1.400000 -0.023285 0.346410
v 1.000000 -0.070557 0.346410
v 0.600000 -0.072727 0.346410
v -1.000000 -0.046499 -1.039230
v -1.200000 -0.037548 -0.692820
v -0.800000 -0.014690 -0.692820
v -1.400000 -0.011723 -0.346410
v -1.000000 -0.012779 -0.346410
v -0.600000 -0.018155 -0.346410
v -1.400000 0.049282 0.346410
v -1.200000 0.048927 0.692820
v -1.000000 0.086852 0.346410
v -1.000000 -0.000968 1.039230
v -0.800000 0.038474 0.692820
v -0.600000 0.044701 0.346410
v -0.400000 -0.004960 1.385640
v 0.000000 0.009694 1.385640
v -0.200000 -0.053596 1.039230
v 0.400000 0.022600 1.385640
v 0.200000 -0.011932 1.039230
v 0.000000 -0.056835 0.692820
v -1.000000 -0.500000 1.732050
v 1.000000 -0.500000 1.732050
v -1.000000 -0.500000 -1.732050
v 1.000000 -0.500000 -1.732051
v -2.000000 -0.500000 0.000000
v 2.000000 -0.500000 0.000000
v 1.000000 0.000000 1.732050
v 2.000000 0.000000 0.000000
v 1.000000 -0.000000 -1.732051
v -1.600000 0.000000 0.692820
v -1.400000 0.000006 1.039230
v -0.600000 -0.000000 1.732050
v -0.200000 -0.000000 1.732050
v 0.200000 0.000000 1.732050
v 1.200000 -0.000008 -1.385641
v 0.600000 -0.000000 -1.732051
v -0.200000 -0.000039 -1.732050
v -0.600000 -0.000005 -1.732050
v -1.200000 -0.002324 -1.385640
v -1.400000 -0.007072 -1.039230
v -1.600000 -0.001986 -0.692820
v -1.800000 0.000029 -0.346410
v 1.600000 -0.000000 0.692820
vt 0.549269 1.664383
vt 0.549269 1.431506
vt 0.789909 1.547944
vt 0.789909 -0.315068
vt 0.549269 -0.198629
vt 0.549269 -0.431506
vt 1.030548 -0.431506
vt 1.030548 -0.198629
vt 0.789909 -0.082191
vt 0.549269 0.034247
vt 1.271188 -0.082191
vt 1.030548 0.034247
vt 0.789909 0.150686
vt 0.549269 0.267124
vt 1.511828 0.034248
vt 1.271188 0.150686
vt 1.030548 0.267124
vt 0.789909 0.383562
vt 0.549269 0.500000
vt 0.308629 0.383562
vt 0.067989 0.267124
vt 0.308629 0.150685
vt -0.172651 0.150685
vt 0.067989 0.034247
vt -0.413291 0.034247
vt -0.172651 -0.082191
vt 0.308629 -0.082191
vt 0.067989 -0.198629
vt 0.308629 -0.315068
vt -0.413291 -0.198629
vt -0.172651 -0.315068
vt 0.067989 -0.431506
vt -0.653930 0.616438
vt -0.413291 0.732876
vt -0.653930 0.849315
vt -0.413291 0.965753
vt -0.172650 0.849315
vt -0.413291 0.500000
vt -0.172651 0.616438
vt 0.067989 0.732877
vt -0.413291 0.267124
vt -0.172651 0.383562
vt 0.067989 0.500000
vt 0.308629 0.616439
vt -0.653930 0.150685
vt 1.511828 0.267124
vt 1.511828 0.500001
vt 1.271188 0.383562
vt 1.511828 0.732877
vt 1.271188 0.616439
vt 1.030548 0.500000
vt 1.511828 0.965753
vt 1.271188 0.849315
vt 1.030548 0.732877
vt 0.789909 0.616439
vt 1.511828 1.198630
vt 1.752468 1.082192
vt 1.271188 1.082192
vt 1.030549 1.198630
vt 1.030548 0.965753
vt 0.789909 1.315068
vt 0.789909 1.082191
vt 0.789909 0.849315
vt 0.549269 1.198630
vt 0.549269 0.965753
vt 0.549269 0.732877
vt 0.308629 1.315068
vt 0.067989 1.198629
vt 0.308629 1.082191
vt -0.172650 1.082191
vt 0.067989 0.965753
vt 0.308629 0.849315
vt -0.413291 1.198629
vt 2.955667 -0.664383
vt 4.158867 -0.082192
vt 2.955668 1.664382
vt -0.653930 1.082191
vt 1.752468 0.849315
vt -0.653930 -0.082191
vt 1.752468 -0.082191
vt 1.511828 -0.198629
vt 0.789909 -0.547944
vt 0.549269 -0.664383
vt 1.271188 -0.315067
vt 0.308629 -0.547944
vt -0.653930 0.383562
vt 1.752468 0.150686
vt 1.752468 0.383562
vt 1.752468 0.616439
vt 1.271188 1.315068
vt 1.030549 1.431506
vt 0.308629 1.547944
vt 0.067989 1.431506
vt -0.172650 1.315068
vt 4.506201 -0.082191
vt 4.158867 -0.431506
vt 4.506200 -0.664383
vt 4.506201 1.082191
vt 4.853535 1.315068
vt 4.506201 1.664382
vt 4.158867 0.383562
vt 4.853535 -0.431506
vt 4.158868 1.431506
vt 4.158867 1.315068
vt 4.853535 0.616438
vt 4.158867 1.082191
vt 4.158867 -0.664383
vt 4.158867 -0.547944
vt 4.158867 -0.198629
vt 4.158867 -0.315067
vt 4.853535 1.664382
vt 4.853535 1.547944
vt 4.853535 1.082191
vt 4.853535 1.198629
vt 4.853535 1.431506
vt 4.158867 0.150686
vt 4.158867 0.849315
vt 4.158867 0.616439
vt 4.853535 -0.082191
vt 4.853535 -0.198630
vt 4.853536 -0.664383
vt 4.853536 -0.547944
vt 4.853535 -0.315068
vt 4.158867 1.198630
vt 4.158868 1.664382
vt 4.158868 1.547944
vt 4.853535 0.849314
vt 4.853535 0.150685
vt 4.853535 0.383561
vn 0.060700 0.997500 -0.035000
vn 0.087400 0.995300 0.042300
vn -0.022200 0.997200 0.071200
vn -0.022200 0.994500 0.102800
vn -0.019800 0.994400 0.104200
vn -0.019800 0.998100 0.058100
vn -0.051500 0.994100 0.095600
vn -0.030600 0.993700 0.107600
vn -0.030700 0.997000 0.070800
vn -0.036300 0.997100 0.067600
vn -0.036400 0.999200 -0.015100
vn -0.081700 0.995900 -0.038700
vn 0.050000 0.998100 0.037300
vn 0.050000 0.998400 -0.026400
vn 0.093600 0.995600 -0.001000
vn 0.093600 0.995500 0.014200
vn 0.003400 0.999300 -0.038100
vn 0.003400 0.994300 -0.106800
vn 0.048400 0.995500 -0.081000
vn 0.072700 0.990700 -0.114700
vn -0.059600 0.995500 -0.074000
vn -0.138700 0.990300 -0.007600
vn 0.090000 0.990400 -0.104700
vn 0.090300 0.994200 0.058000
vn -0.029100 0.998000 -0.056500
vn -0.029200 0.998900 0.037600
vn 0.048500 0.995400 0.082300
vn 0.048500 0.994100 0.097300
vn -0.155700 0.987600 -0.017600
vn -0.155800 0.987800 -0.002600
vn -0.058400 0.996800 0.054400
vn -0.058300 0.994800 0.083100
vn 0.007500 0.992700 0.120800
vn 0.007500 1.000000 -0.003800
vn -0.104200 0.994200 -0.027800
vn -0.104000 0.992800 0.060100
vn -0.182700 0.983100 0.013400
vn -0.181700 0.977700 0.104900
vn -0.140200 0.981600 0.129700
vn -0.006100 1.000000 -0.003500
vn 0.050500 0.998100 -0.036200
vn -0.059800 0.993200 -0.099600
vn -0.006100 0.997600 -0.069100
vn -0.079500 0.990600 -0.111000
vn -0.059700 0.990700 -0.122400
vn 0.013000 0.996600 -0.081000
vn -0.117100 0.991200 -0.062100
vn -0.079700 0.993300 -0.084000
vn -0.005400 0.999100 -0.041300
vn 0.013000 0.998600 -0.051900
vn 0.038900 0.998600 -0.037000
vn -0.058000 0.998300 0.001100
vn -0.138500 0.989300 -0.045600
vn -0.117200 0.991400 -0.058200
vn -0.059800 0.997900 -0.025000
vn -0.005400 0.998400 -0.056400
vn 0.073200 0.997300 -0.011000
vn 0.038900 0.999200 0.008800
vn 0.048500 0.998700 0.014400
vn 0.019600 0.995100 -0.097200
vn -0.057000 0.996700 -0.058600
vn 0.019600 0.994500 -0.102600
vn 0.100700 0.993400 -0.055700
vn 0.002600 0.997300 -0.072800
vn -0.057000 0.997600 -0.038400
vn 0.013400 0.999900 0.002200
vn 0.100700 0.993700 -0.048200
vn 0.150300 0.988500 -0.019000
vn -0.037000 0.991900 -0.121900
vn 0.002600 0.989500 -0.144400
vn 0.010200 0.990100 -0.140100
vn 0.013300 0.989800 -0.141900
vn 0.097100 0.990900 -0.093600
vn 0.149200 0.981100 -0.123300
vn 0.092000 0.983300 -0.156800
vn -0.058300 0.997700 0.033600
vn -0.122300 0.992500 -0.003700
vn -0.037300 0.997900 -0.053100
vn -0.093400 0.994100 0.054900
vn -0.093200 0.992000 -0.085200
vn 0.010200 0.989400 -0.144600
vn 0.025900 0.991500 0.127800
vn 0.025900 0.992000 0.123600
vn 0.104500 0.991500 0.078100
vn 0.104400 0.990400 -0.090300
vn 0.097200 0.991500 -0.086200
vn 0.060700 0.997600 0.032200
vn 0.006400 0.998000 0.063600
vn 0.006300 0.993100 0.116700
vn 0.161600 0.986500 0.026300
vn 0.160700 0.980800 0.110400
vn 0.131800 0.983000 0.127500
vn 0.132600 0.989000 -0.065400
vn 0.093100 0.994800 -0.042500
vn -0.048300 0.998300 0.032000
vn -0.036100 0.986600 -0.159400
vn 0.123900 0.990000 -0.067400
vn 0.124200 0.992200 0.004300
vn -0.032100 0.996200 -0.080800
vn -0.102800 0.987300 -0.121000
vn -0.103400 0.992300 -0.068900
vn 0.074200 0.996700 0.033500
vn 0.073900 0.992800 0.094600
vn 0.005900 0.998100 0.061700
vn 0.005800 0.990500 -0.137200
vn 0.036300 0.992100 -0.119800
vn 0.036400 0.994900 -0.094400
vn -0.011700 0.992500 -0.121900
vn -0.011800 0.999900 -0.007800
vn 0.119400 0.990500 0.068000
vn 0.119700 0.992400 -0.026900
vn 0.000000 -1.000000 0.000000
vn 0.000000 0.998300 0.058400
vn -0.058300 0.997700 -0.033600
vn -0.028100 0.999500 -0.016100
vn -0.028100 0.999500 0.016300
vn 0.000000 0.971700 0.236400
vn 0.000000 0.986700 0.162300
vn -0.003900 0.998200 0.060600
vn 0.003800 0.996300 0.086100
vn 0.000100 0.989200 0.146800
vn 0.087000 0.989800 0.112600
vn -0.051300 0.991700 0.117500
vn -0.080300 0.978200 0.191600
vn -0.140900 0.986700 0.081400
vn -0.140500 0.986700 0.081600
vn -0.140500 0.986700 0.081100
vn 0.050500 0.998300 0.029200
vn -0.062900 0.997400 -0.036300
vn -0.058000 0.997800 -0.033600
vn -0.062900 0.997500 -0.030700
vn 0.199200 0.972400 0.121500
vn 0.097900 0.992700 0.070100
vn 0.088500 0.995400 0.036500
vn 0.029400 0.999500 0.011100
vn 0.200700 0.979600 0.009100
vn 0.098000 0.994700 0.030900
vn 0.088500 0.995800 -0.023100
vn 0.029300 0.996000 -0.084000
vn -0.122000 0.990000 0.070400
vn -0.121100 0.990200 0.069900
vn 0.002400 1.000000 -0.001400
vn -0.121100 0.990100 0.070900
vn 0.002400 0.990000 0.141200
vn 0.000000 0.997500 -0.070000
vn -0.000000 0.999900 -0.014300
vn 0.000000 0.999600 0.028000
vn -0.000000 0.997900 0.065100
vn -0.048300 0.997900 -0.042200
vn -0.036600 0.999300 0.006800
vn -0.032200 0.998400 0.046500
vn -0.000000 0.000000 -1.000000
vn 0.000000 0.000000 1.000000
vn -0.866000 -0.000000 -0.500000
vn 0.866000 -0.000000 -0.500000
vn -0.866000 -0.000000 0.500000
vn 0.866000 -0.000000 0.500000
s off
f 2/1/1 30/2/1 6/3/1
f 39/4/2 36/5/2 35/6/2
f 11/7/3 40/8/3 39/4/3
f 40/8/4 41/9/4 39/4/4
f 39/4/5 41/9/5 36/5/5
f 41/9/6 37/10/6 36/5/6
f 42/11/7 43/12/7 40/8/7
f 40/8/8 43/12/8 41/9/8
f 43/12/9 44/13/9 41/9/9
f 41/9/10 44/13/10 37/10/10
f 44/13/11 38/14/11 37/10/11
f 31/15/12 32/16/12 42/11/12
f 42/11/13 32/16/13 43/12/13
f 32/16/14 33/17/14 43/12/14
f 43/12/15 33/17/15 44/13/15
f 33/17/16 34/18/16 44/13/16
f 44/13/17 34/18/17 38/14/17
f 34/18/18 4/19/18 38/14/18
f 15/20/19 38/14/19 4/19/19
f 16/21/20 45/22/20 15/20/20
f 17/23/21 46/24/21 16/21/21
f 18/25/22 48/26/22 17/23/22
f 15/20/23 45/22/23 38/14/23
f 45/22/24 37/10/24 38/14/24
f 16/21/25 46/24/25 45/22/25
f 46/24/26 47/27/26 45/22/26
f 45/22/27 47/27/27 37/10/27
f 47/27/28 36/5/28 37/10/28
f 17/23/29 48/26/29 46/24/29
f 48/26/30 49/28/30 46/24/30
f 46/24/31 49/28/31 47/27/31
f 49/28/32 50/29/32 47/27/32
f 47/27/33 50/29/33 36/5/33
f 50/29/34 35/6/34 36/5/34
f 18/25/35 8/30/35 48/26/35
f 8/30/36 9/31/36 48/26/36
f 48/26/37 9/31/37 49/28/37
f 9/31/38 10/32/38 49/28/38
f 49/28/39 10/32/39 50/29/39
f 13/33/40 51/34/40 12/35/40
f 12/35/41 51/34/41 23/36/41
f 51/34/42 24/37/42 23/36/42
f 13/33/43 52/38/43 51/34/43
f 52/38/44 53/39/44 51/34/44
f 51/34/45 53/39/45 24/37/45
f 53/39/46 25/40/46 24/37/46
f 54/41/47 55/42/47 52/38/47
f 52/38/48 55/42/48 53/39/48
f 55/42/49 56/43/49 53/39/49
f 53/39/50 56/43/50 25/40/50
f 56/43/51 26/44/51 25/40/51
f 14/45/52 18/25/52 54/41/52
f 18/25/53 17/23/53 54/41/53
f 54/41/54 17/23/54 55/42/54
f 17/23/55 16/21/55 55/42/55
f 55/42/56 16/21/56 56/43/56
f 16/21/57 15/20/57 56/43/57
f 56/43/58 15/20/58 26/44/58
f 15/20/59 4/19/59 26/44/59
f 57/46/60 32/16/60 31/15/60
f 58/47/61 59/48/61 57/46/61
f 57/46/62 59/48/62 32/16/62
f 59/48/63 33/17/63 32/16/63
f 60/49/64 61/50/64 58/47/64
f 58/47/65 61/50/65 59/48/65
f 61/50/66 62/51/66 59/48/66
f 59/48/67 62/51/67 33/17/67
f 62/51/68 34/18/68 33/17/68
f 19/52/69 20/53/69 60/49/69
f 60/49/70 20/53/70 61/50/70
f 20/53/71 21/54/71 61/50/71
f 61/50/72 21/54/72 62/51/72
f 21/54/73 22/55/73 62/51/73
f 62/51/74 22/55/74 34/18/74
f 22/55/75 4/19/75 34/18/75
f 5/56/76 19/52/76 1/57/76
f 5/56/77 63/58/77 19/52/77
f 63/58/78 20/53/78 19/52/78
f 64/59/79 65/60/79 63/58/79
f 63/58/80 65/60/80 20/53/80
f 65/60/81 21/54/81 20/53/81
f 66/61/82 67/62/82 64/59/82
f 64/59/83 67/62/83 65/60/83
f 67/62/84 68/63/84 65/60/84
f 65/60/85 68/63/85 21/54/85
f 68/63/86 22/55/86 21/54/86
f 6/3/87 30/2/87 66/61/87
f 30/2/88 29/64/88 66/61/88
f 66/61/89 29/64/89 67/62/89
f 29/64/90 28/65/90 67/62/90
f 67/62/91 28/65/91 68/63/91
f 28/65/92 27/66/92 68/63/92
f 68/63/93 27/66/93 22/55/93
f 27/66/94 4/19/94 22/55/94
f 69/67/95 29/64/95 30/2/95
f 70/68/96 71/69/96 69/67/96
f 69/67/97 71/69/97 29/64/97
f 71/69/98 28/65/98 29/64/98
f 72/70/99 73/71/99 70/68/99
f 70/68/100 73/71/100 71/69/100
f 73/71/101 74/72/101 71/69/101
f 71/69/102 74/72/102 28/65/102
f 74/72/103 27/66/103 28/65/103
f 7/73/104 23/36/104 72/70/104
f 23/36/105 24/37/105 72/70/105
f 72/70/106 24/37/106 73/71/106
f 24/37/107 25/40/107 73/71/107
f 73/71/108 25/40/108 74/72/108
f 25/40/109 26/44/109 74/72/109
f 74/72/110 26/44/110 27/66/110
f 26/44/111 4/19/111 27/66/111
f 77/74/112 78/75/112 76/76/112
f 81/77/113 23/36/113 7/73/113
f 1/57/114 19/52/114 96/78/114
f 82/79/115 18/25/115 14/45/115
f 82/79/116 8/30/116 18/25/116
f 3/80/117 31/15/117 92/81/117
f 90/82/118 35/6/118 83/83/118
f 11/7/119 39/4/119 90/82/119
f 91/84/120 40/8/120 11/7/120
f 92/81/121 42/11/121 91/84/121
f 90/82/122 39/4/122 35/6/122
f 91/84/123 42/11/123 40/8/123
f 92/81/124 31/15/124 42/11/124
f 10/32/125 89/85/125 50/29/125
f 50/29/126 89/85/126 35/6/126
f 89/85/127 83/83/127 35/6/127
f 12/35/128 23/36/128 81/77/128
f 97/86/129 52/38/129 13/33/129
f 14/45/130 54/41/130 97/86/130
f 97/86/131 54/41/131 52/38/131
f 93/87/132 31/15/132 3/80/132
f 94/88/133 57/46/133 93/87/133
f 95/89/134 58/47/134 94/88/134
f 96/78/135 60/49/135 95/89/135
f 93/87/136 57/46/136 31/15/136
f 94/88/137 58/47/137 57/46/137
f 95/89/138 60/49/138 58/47/138
f 96/78/139 19/52/139 60/49/139
f 84/90/140 63/58/140 5/56/140
f 85/91/141 64/59/141 84/90/141
f 6/3/142 66/61/142 85/91/142
f 84/90/143 64/59/143 63/58/143
f 85/91/144 66/61/144 64/59/144
f 86/92/145 30/2/145 2/1/145
f 87/93/146 69/67/146 86/92/146
f 88/94/147 70/68/147 87/93/147
f 7/73/148 72/70/148 88/94/148
f 86/92/149 69/67/149 30/2/149
f 87/93/150 70/68/150 69/67/150
f 88/94/151 72/70/151 70/68/151
f 77/95/152 11/96/152 78/97/152
f 76/98/153 88/99/153 75/100/153
f 79/98/154 94/101/154 77/95/154
f 10/102/155 80/95/155 78/97/155
f 85/103/156 84/104/156 75/100/156
f 80/95/157 13/105/157 76/98/157
f 76/76/112 75/57/112 77/74/112
f 79/80/112 77/74/112 75/57/112
f 78/75/112 80/106/112 76/76/112
f 83/107/152 78/97/152 90/108/152
f 77/95/152 3/75/152 92/109/152
f 92/109/152 91/110/152 77/95/152
f 11/96/152 90/108/152 78/97/152
f 77/95/152 91/110/152 11/96/152
f 2/111/153 75/100/153 86/112/153
f 76/98/153 81/113/153 7/114/153
f 88/99/153 87/115/153 75/100/153
f 76/98/153 7/114/153 88/99/153
f 86/112/153 75/100/153 87/115/153
f 3/75/154 77/95/154 93/116/154
f 79/98/154 1/106/154 96/117/154
f 96/117/154 95/118/154 79/98/154
f 94/101/154 93/116/154 77/95/154
f 79/98/154 95/118/154 94/101/154
f 82/119/155 80/95/155 8/120/155
f 78/97/155 83/121/155 89/122/155
f 89/122/155 10/102/155 78/97/155
f 9/123/155 8/120/155 80/95/155
f 80/95/155 10/102/155 9/123/155
f 1/106/156 79/98/156 5/124/156
f 75/100/156 2/125/156 6/126/156
f 6/126/156 85/103/156 75/100/156
f 84/104/156 5/124/156 79/98/156
f 79/98/156 75/100/156 84/104/156
f 81/113/157 76/98/157 12/127/157
f 80/95/157 82/119/157 14/128/157
f 14/128/157 97/129/157 80/95/157
f 12/127/157 76/98/157 13/105/157
f 97/129/157 13/105/157 80/95/157
