# Blender v2.76 (sub 0) OBJ File: 'SettlersOfCatan.blend'
# www.blender.org
o Wood_Plane.003
v -2.000000 -0.000000 0.000000
v -1.000000 -0.000000 1.732050
v -1.000000 -0.000000 -1.732050
v 0.000000 -0.000000 0.000000
v -1.800000 -0.000002 0.346410
v -1.200000 -0.000000 1.385640
v 0.600000 0.000002 1.732050
v 1.800000 -0.000000 -0.346410
v 1.600000 -0.000000 -0.692820
v 1.400000 -0.000011 -1.039230
v 0.200000 0.003169 -1.732050
v 1.200000 0.000000 1.385640
v 1.400000 0.000000 1.039230
v 1.800000 0.000960 0.346410
v 0.400000 -0.000000 0.000000
v 0.800000 -0.000000 0.000000
v 1.200000 -0.000000 0.000000
v 1.600000 -0.003723 0.000000
v -1.600000 -0.017203 0.000000
v -1.200000 0.092931 0.000000
v -0.800000 0.072343 0.000000
v -0.400000 0.080859 0.000000
v 0.800000 0.139447 1.385640
v 0.600000 0.316950 1.039230
v 0.400000 0.280743 0.692820
v 0.200000 0.249805 0.346410
v -0.200000 0.185868 0.346410
v -0.400000 0.153334 0.692820
v -0.600000 0.090571 1.039230
v -0.800000 0.012318 1.385640
v -0.800000 -0.120544 -1.385640
v -0.600000 -0.141254 -1.039230
v -0.400000 -0.188351 -0.692820
v -0.200000 -0.164745 -0.346410
v 0.800000 -0.003553 -1.385641
v 0.600000 -0.114790 -1.039230
v 0.400000 -0.097819 -0.692820
v 0.200000 -0.136085 -0.346410
v 0.400000 0.019041 -1.385640
v 0.000000 0.002224 -1.385640
v 0.200000 -0.089239 -1.039230
v -0.400000 -0.074140 -1.385640
v -0.200000 -0.158180 -1.039230
v 0.000000 -0.119861 -0.692820
v 0.600000 -0.177790 -0.346410
v 1.000000 -0.153224 -0.346410
v 0.800000 -0.225531 -0.692820
v 1.400000 -0.110390 -0.346410
v 1.200000 -0.166655 -0.692820
v 1.000000 -0.118701 -1.039230
v 1.000000 0.197310 1.039230
v 1.200000 0.178447 0.692820
v 0.800000 0.246420 0.692820
v 1.400000 0.145966 0.346410
v 1.000000 0.218245 0.346410
v 0.600000 0.224164 0.346410
v -1.000000 -0.079817 -1.039230
v -1.200000 -0.046836 -0.692820
v -0.800000 -0.115787 -0.692820
v -1.400000 -0.027093 -0.346410
v -1.000000 0.036657 -0.346410
v -0.600000 -0.056961 -0.346410
v -1.400000 0.039215 0.346410
v -1.200000 0.191036 0.692820
v -1.000000 0.167652 0.346410
v -1.000000 0.108921 1.039230
v -0.800000 0.174588 0.692820
v -0.600000 0.218864 0.346410
v -0.400000 -0.001200 1.385640
v 0.000000 0.069369 1.385640
v -0.200000 0.171539 1.039230
v 0.400000 0.136603 1.385640
v 0.200000 0.277013 1.039230
v 0.000000 0.210290 0.692820
v -1.000000 -0.500000 1.732050
v 1.000000 -0.500000 1.732050
v -1.000000 -0.500000 -1.732050
v 1.000000 -0.500000 -1.732051
v -2.000000 -0.500000 0.000000
v 2.000000 -0.500000 0.000000
v 1.000000 0.000000 1.732050
v 2.000000 -0.000000 0.000000
v 1.000000 0.000000 -1.732051
v -1.600000 0.000000 0.692820
v -1.400000 0.000040 1.039230
v -0.600000 -0.000000 1.732050
v -0.200000 -0.000000 1.732050
v 0.200000 -0.000000 1.732050
v 1.200000 -0.000006 -1.385641
v 0.600000 0.000000 -1.732051
v -0.200000 -0.000002 -1.732050
v -0.600000 -0.000007 -1.732050
v -1.200000 -0.001766 -1.385640
v -1.400000 -0.008428 -1.039230
v -1.600000 -0.000729 -0.692820
v -1.800000 0.000330 -0.346410
v 1.600000 0.000016 0.692820
vt 0.531291 1.473326
vt 0.531291 1.278661
vt 0.716499 1.375993
vt 0.716499 -0.181328
vt 0.531291 -0.083995
vt 0.531291 -0.278661
vt 0.901706 -0.278661
vt 0.901707 -0.083995
vt 0.716499 0.013337
vt 0.531291 0.110670
vt 1.086914 0.013337
vt 0.901706 0.110670
vt 0.716499 0.208003
vt 0.531291 0.305335
vt 1.272122 0.110670
vt 1.086914 0.208003
vt 0.901706 0.305335
vt 0.716499 0.402668
vt 0.531291 0.500000
vt 0.346083 0.402668
vt 0.160875 0.305335
vt 0.346083 0.208002
vt -0.024332 0.208002
vt 0.160875 0.110670
vt -0.209540 0.110670
vt -0.024332 0.013337
vt 0.346083 0.013337
vt 0.160875 -0.083995
vt 0.346083 -0.181328
vt -0.209540 -0.083995
vt -0.024332 -0.181328
vt 0.160875 -0.278661
vt -0.394748 0.597333
vt -0.209540 0.694665
vt -0.394748 0.791998
vt -0.209540 0.889330
vt -0.024332 0.791998
vt -0.209540 0.500000
vt -0.024332 0.597333
vt 0.160875 0.694665
vt -0.209540 0.305335
vt -0.024332 0.402667
vt 0.160875 0.500000
vt 0.346083 0.597333
vt -0.394748 0.208002
vt 1.272122 0.305335
vt 1.272122 0.500000
vt 1.086914 0.402668
vt 1.272122 0.694665
vt 1.086914 0.597333
vt 0.901707 0.500000
vt 1.272122 0.889331
vt 1.086914 0.791998
vt 0.901707 0.694665
vt 0.716499 0.597333
vt 1.272122 1.083996
vt 1.457330 0.986663
vt 1.086914 0.986663
vt 0.901707 1.083996
vt 0.901707 0.889331
vt 0.716499 1.181328
vt 0.716499 0.986663
vt 0.716499 0.791998
vt 0.531291 1.083996
vt 0.531291 0.889331
vt 0.531291 0.694665
vt 0.346083 1.181328
vt 0.160876 1.083995
vt 0.346083 0.986663
vt -0.024332 0.986663
vt 0.160876 0.889330
vt 0.346083 0.791998
vt -0.209540 1.083995
vt 2.383368 -0.473326
vt 3.309408 0.013337
vt 2.383369 1.473325
vt -0.394748 0.986663
vt 1.457330 0.791998
vt -0.394748 0.013337
vt 1.457330 0.013338
vt 1.272122 -0.083995
vt 0.716499 -0.375993
vt 0.531291 -0.473326
vt 1.086914 -0.181328
vt 0.346083 -0.375993
vt -0.394748 0.402667
vt 1.457330 0.208003
vt 1.457330 0.402668
vt 1.457330 0.597333
vt 1.086914 1.181328
vt 0.901707 1.278661
vt 0.346083 1.375993
vt 0.160876 1.278661
vt -0.024332 1.181328
vt 3.576733 0.013338
vt 3.309408 -0.181328
vt 3.576733 -0.473326
vt 3.576733 0.986663
vt 3.844058 1.181328
vt 3.576734 1.473326
vt 3.309409 0.402668
vt 3.844058 -0.278661
vt 3.309409 1.181328
vt 3.844058 0.402667
vt 3.844058 0.597332
vt 3.309408 0.986663
vt 3.309408 -0.473326
vt 3.309408 -0.375993
vt 3.309408 -0.083995
vt 3.309408 -0.278660
vt 3.844058 1.473326
vt 3.844058 1.375993
vt 3.844058 0.986663
vt 3.844058 1.083995
vt 3.844058 1.278661
vt 3.309409 0.208003
vt 3.309409 0.791998
vt 3.309409 0.597333
vt 3.844058 0.013337
vt 3.844058 -0.083996
vt 3.844058 -0.473326
vt 3.844058 -0.375993
vt 3.844058 -0.181328
vt 3.309409 1.083996
vt 3.309409 1.473326
vt 3.309409 1.375993
vt 3.309409 1.278661
vt 3.844058 0.791997
vt 3.844058 0.208002
vn -0.030800 0.999400 0.017800
vn 0.053200 0.941400 0.333000
vn -0.042000 0.998900 -0.021500
vn -0.040400 0.960100 0.276800
vn 0.060200 0.942300 0.329300
vn 0.063700 0.997900 -0.012100
vn -0.177200 0.928100 0.327500
vn -0.159900 0.927700 0.337300
vn -0.169800 0.985400 -0.010900
vn -0.054900 0.996900 0.056400
vn -0.054900 0.995400 0.078300
vn -0.114300 0.985600 0.124900
vn 0.041300 0.976200 0.213000
vn 0.042000 0.993000 0.110700
vn -0.168800 0.985600 -0.011600
vn -0.168700 0.985200 0.030300
vn -0.071200 0.993600 0.087600
vn -0.065600 0.915300 -0.397400
vn 0.000000 0.930800 -0.365600
vn 0.000000 0.889700 -0.456600
vn -0.000000 0.914500 -0.404500
vn 0.008900 0.954200 -0.299000
vn 0.094500 0.906800 -0.410800
vn 0.102200 0.980600 0.167300
vn -0.055300 0.900900 -0.430400
vn -0.060400 0.983500 -0.170400
vn 0.303900 0.951700 0.044300
vn 0.301700 0.944800 0.127900
vn -0.099600 0.930000 -0.353900
vn -0.105900 0.989400 -0.099500
vn -0.144500 0.982000 -0.121500
vn -0.142200 0.966000 0.215800
vn 0.009300 0.954000 0.299600
vn 0.009300 0.950500 0.310600
vn -0.263300 0.954200 -0.141800
vn -0.262900 0.952800 0.151800
vn -0.383600 0.920700 0.071900
vn -0.375500 0.901100 0.216700
vn -0.272700 0.919000 0.284700
vn 0.428600 0.868900 0.247500
vn 0.310900 0.891900 0.328500
vn 0.272500 0.911000 0.309500
vn 0.433200 0.878300 0.202300
vn 0.167400 0.985000 0.043000
vn 0.286400 0.957600 -0.029600
vn 0.084500 0.984800 -0.151700
vn 0.177800 0.984000 0.010400
vn 0.167500 0.985700 0.016500
vn 0.014800 0.997300 -0.072600
vn 0.084900 0.990000 -0.112700
vn 0.063500 0.990100 -0.125100
vn 0.333600 0.920200 -0.205000
vn 0.008600 0.919700 -0.392500
vn 0.157900 0.874000 -0.459500
vn -0.000000 0.846100 -0.533000
vn 0.012500 0.842800 -0.538200
vn 0.000000 0.839600 -0.543300
vn 0.052800 0.824200 -0.563800
vn 0.000000 0.811100 -0.584900
vn 0.151800 0.988000 -0.028500
vn 0.169900 0.985500 0.004300
vn 0.151800 0.988300 0.015000
vn 0.178400 0.983500 0.030700
vn -0.155700 0.977000 -0.145600
vn 0.161000 0.934300 -0.318200
vn 0.218500 0.933400 -0.284600
vn 0.172300 0.949900 -0.260800
vn 0.254300 0.943800 -0.211100
vn -0.261200 0.948700 -0.177900
vn -0.152600 0.957800 -0.243700
vn 0.051000 0.990000 -0.131400
vn 0.222000 0.948500 -0.225900
vn -0.019900 0.932900 -0.359700
vn 0.229500 0.851600 -0.471300
vn 0.171400 0.847700 -0.502100
vn 0.043000 0.998800 -0.024800
vn -0.097000 0.989700 -0.105200
vn -0.265500 0.964100 -0.003800
vn -0.297200 0.925700 -0.234100
vn -0.305600 0.951700 -0.028900
vn 0.049900 0.970000 -0.238000
vn 0.040200 0.977200 0.208400
vn 0.041000 0.998200 -0.043700
vn -0.126800 0.990500 0.053400
vn -0.120000 0.937300 -0.327200
vn -0.019700 0.924900 -0.379800
vn -0.029500 0.958300 0.284300
vn 0.044400 0.968600 0.244500
vn 0.044800 0.976500 0.211000
vn 0.051900 0.977000 0.207000
vn 0.052400 0.986300 0.156300
vn 0.081400 0.986800 0.139700
vn 0.077600 0.940800 -0.330000
vn 0.183200 0.906400 -0.380600
vn 0.032800 0.970700 0.238200
vn -0.161800 0.917200 0.364000
vn -0.185800 0.918000 0.350500
vn -0.198000 0.978200 0.062900
vn -0.148500 0.883700 0.443900
vn -0.234000 0.887500 0.396900
vn -0.254800 0.966200 -0.039000
vn -0.140900 0.989600 0.029300
vn -0.141000 0.989900 0.011600
vn -0.006600 0.929000 0.370100
vn -0.006300 0.888500 0.458900
vn -0.090200 0.903800 0.418400
vn -0.099200 0.994000 -0.046600
vn -0.172800 0.980900 -0.089200
vn -0.173400 0.984800 0.012200
vn -0.157800 0.987200 0.021500
vn -0.134100 0.838900 -0.527500
vn 0.000000 -1.000000 0.000000
vn 0.000000 0.927700 0.373400
vn 0.043000 0.998700 0.025800
vn -0.009300 0.999900 -0.008100
vn -0.009300 0.999900 0.005400
vn 0.000000 0.944500 0.328600
vn 0.000000 0.999900 0.010300
vn 0.007900 0.998700 -0.050300
vn -0.007900 1.000000 -0.001800
vn -0.000000 0.977900 0.209300
vn 0.056400 0.998200 -0.022300
vn -0.186600 0.977200 0.101400
vn -0.111000 0.956800 0.268800
vn -0.280700 0.946000 0.162100
vn -0.008400 0.947500 0.319800
vn -0.008900 0.999900 0.005100
vn 0.323400 0.927700 0.186700
vn 0.396600 0.889000 0.229000
vn 0.334200 0.922000 0.195500
vn 0.402900 0.903200 0.147900
vn 0.280700 0.945200 0.166900
vn 0.174400 0.977400 0.119500
vn 0.114400 0.992500 0.044000
vn 0.068400 0.997000 0.036400
vn 0.284300 0.957400 0.051600
vn 0.175700 0.984400 0.007700
vn 0.114500 0.993400 0.009500
vn 0.068400 0.997600 0.011000
vn -0.097400 0.993700 0.056200
vn -0.418200 0.875700 0.241400
vn -0.259700 0.954000 0.150000
vn -0.426400 0.892800 -0.145100
vn -0.245500 0.901900 0.355500
vn 0.000000 0.999400 0.035500
vn -0.000000 1.000000 -0.003500
vn 0.000000 0.980500 0.196400
vn -0.000000 0.930300 0.366800
vn 0.033800 0.999300 0.016000
vn -0.172900 0.980200 0.096400
vn -0.159100 0.946300 0.281300
vn -0.000000 -0.000000 -1.000000
vn 0.000000 0.000000 1.000000
vn -0.866000 -0.000000 -0.500000
vn 0.866000 -0.000000 -0.500000
vn -0.866000 0.000000 0.500000
vn 0.866000 0.000000 0.500000
s off
f 2/1/1 30/2/1 6/3/1
f 39/4/2 36/5/2 35/6/2
f 11/7/3 40/8/3 39/4/3
f 40/8/4 41/9/4 39/4/4
f 39/4/5 41/9/5 36/5/5
f 41/9/6 37/10/6 36/5/6
f 42/11/7 43/12/7 40/8/7
f 40/8/8 43/12/8 41/9/8
f 43/12/9 44/13/9 41/9/9
f 41/9/10 44/13/10 37/10/10
f 44/13/11 38/14/11 37/10/11
f 31/15/12 32/16/12 42/11/12
f 42/11/13 32/16/13 43/12/13
f 32/16/14 33/17/14 43/12/14
f 43/12/15 33/17/15 44/13/15
f 33/17/16 34/18/16 44/13/16
f 44/13/17 34/18/17 38/14/17
f 34/18/18 4/19/18 38/14/18
f 15/20/19 38/14/19 4/19/19
f 16/21/20 45/22/20 15/20/20
f 17/23/21 46/24/21 16/21/21
f 18/25/22 48/26/22 17/23/22
f 15/20/23 45/22/23 38/14/23
f 45/22/24 37/10/24 38/14/24
f 16/21/25 46/24/25 45/22/25
f 46/24/26 47/27/26 45/22/26
f 45/22/27 47/27/27 37/10/27
f 47/27/28 36/5/28 37/10/28
f 17/23/29 48/26/29 46/24/29
f 48/26/30 49/28/30 46/24/30
f 46/24/31 49/28/31 47/27/31
f 49/28/32 50/29/32 47/27/32
f 47/27/33 50/29/33 36/5/33
f 50/29/34 35/6/34 36/5/34
f 18/25/35 8/30/35 48/26/35
f 8/30/36 9/31/36 48/26/36
f 48/26/37 9/31/37 49/28/37
f 9/31/38 10/32/38 49/28/38
f 49/28/39 10/32/39 50/29/39
f 13/33/40 51/34/40 12/35/40
f 12/35/41 51/34/41 23/36/41
f 51/34/42 24/37/42 23/36/42
f 13/33/43 52/38/43 51/34/43
f 52/38/44 53/39/44 51/34/44
f 51/34/45 53/39/45 24/37/45
f 53/39/46 25/40/46 24/37/46
f 54/41/47 55/42/47 52/38/47
f 52/38/48 55/42/48 53/39/48
f 55/42/49 56/43/49 53/39/49
f 53/39/50 56/43/50 25/40/50
f 56/43/51 26/44/51 25/40/51
f 14/45/52 18/25/52 54/41/52
f 18/25/53 17/23/53 54/41/53
f 54/41/54 17/23/54 55/42/54
f 17/23/55 16/21/55 55/42/55
f 55/42/56 16/21/56 56/43/56
f 16/21/57 15/20/57 56/43/57
f 56/43/58 15/20/58 26/44/58
f 15/20/59 4/19/59 26/44/59
f 57/46/60 32/16/60 31/15/60
f 58/47/61 59/48/61 57/46/61
f 57/46/62 59/48/62 32/16/62
f 59/48/63 33/17/63 32/16/63
f 60/49/64 61/50/64 58/47/64
f 58/47/65 61/50/65 59/48/65
f 61/50/66 62/51/66 59/48/66
f 59/48/67 62/51/67 33/17/67
f 62/51/68 34/18/68 33/17/68
f 19/52/69 20/53/69 60/49/69
f 60/49/70 20/53/70 61/50/70
f 20/53/71 21/54/71 61/50/71
f 61/50/72 21/54/72 62/51/72
f 21/54/73 22/55/73 62/51/73
f 62/51/74 22/55/74 34/18/74
f 22/55/75 4/19/75 34/18/75
f 5/56/76 19/52/76 1/57/76
f 5/56/77 63/58/77 19/52/77
f 63/58/78 20/53/78 19/52/78
f 64/59/79 65/60/79 63/58/79
f 63/58/80 65/60/80 20/53/80
f 65/60/81 21/54/81 20/53/81
f 66/61/82 67/62/82 64/59/82
f 64/59/83 67/62/83 65/60/83
f 67/62/84 68/63/84 65/60/84
f 65/60/85 68/63/85 21/54/85
f 68/63/86 22/55/86 21/54/86
f 6/3/87 30/2/87 66/61/87
f 30/2/88 29/64/88 66/61/88
f 66/61/89 29/64/89 67/62/89
f 29/64/90 28/65/90 67/62/90
f 67/62/91 28/65/91 68/63/91
f 28/65/92 27/66/92 68/63/92
f 68/63/93 27/66/93 22/55/93
f 27/66/94 4/19/94 22/55/94
f 69/67/95 29/64/95 30/2/95
f 70/68/96 71/69/96 69/67/96
f 69/67/97 71/69/97 29/64/97
f 71/69/98 28/65/98 29/64/98
f 72/70/99 73/71/99 70/68/99
f 70/68/100 73/71/100 71/69/100
f 73/71/101 74/72/101 71/69/101
f 71/69/102 74/72/102 28/65/102
f 74/72/103 27/66/103 28/65/103
f 7/73/104 23/36/104 72/70/104
f 23/36/105 24/37/105 72/70/105
f 72/70/106 24/37/106 73/71/106
f 24/37/107 25/40/107 73/71/107
f 73/71/108 25/40/108 74/72/108
f 25/40/109 26/44/109 74/72/109
f 74/72/110 26/44/110 27/66/110
f 26/44/111 4/19/111 27/66/111
f 77/74/112 78/75/112 76/76/112
f 81/77/113 23/36/113 7/73/113
f 1/57/114 19/52/114 96/78/114
f 82/79/115 18/25/115 14/45/115
f 82/79/116 8/30/116 18/25/116
f 3/80/117 31/15/117 92/81/117
f 90/82/118 35/6/118 83/83/118
f 11/7/119 39/4/119 90/82/119
f 91/84/120 40/8/120 11/7/120
f 92/81/121 42/11/121 91/84/121
f 90/82/122 39/4/122 35/6/122
f 91/84/123 42/11/123 40/8/123
f 92/81/124 31/15/124 42/11/124
f 10/32/125 89/85/125 50/29/125
f 50/29/126 89/85/126 35/6/126
f 89/85/127 83/83/127 35/6/127
f 12/35/128 23/36/128 81/77/128
f 97/86/129 52/38/129 13/33/129
f 14/45/130 54/41/130 97/86/130
f 97/86/131 54/41/131 52/38/131
f 93/87/132 31/15/132 3/80/132
f 94/88/133 57/46/133 93/87/133
f 95/89/134 58/47/134 94/88/134
f 96/78/135 60/49/135 95/89/135
f 93/87/136 57/46/136 31/15/136
f 94/88/137 58/47/137 57/46/137
f 95/89/138 60/49/138 58/47/138
f 96/78/139 19/52/139 60/49/139
f 84/90/140 63/58/140 5/56/140
f 85/91/141 64/59/141 84/90/141
f 6/3/142 66/61/142 85/91/142
f 84/90/143 64/59/143 63/58/143
f 85/91/144 66/61/144 64/59/144
f 86/92/145 30/2/145 2/1/145
f 87/93/146 69/67/146 86/92/146
f 88/94/147 70/68/147 87/93/147
f 7/73/148 72/70/148 88/94/148
f 86/92/149 69/67/149 30/2/149
f 87/93/150 70/68/150 69/67/150
f 88/94/151 72/70/151 70/68/151
f 77/95/152 91/96/152 78/97/152
f 76/98/153 88/99/153 75/100/153
f 79/98/154 94/101/154 77/95/154
f 78/97/155 10/102/155 80/95/155
f 75/100/156 84/103/156 79/98/156
f 80/95/157 97/104/157 13/105/157
f 76/76/112 75/57/112 77/74/112
f 79/80/112 77/74/112 75/57/112
f 78/75/112 80/106/112 76/76/112
f 83/107/152 78/97/152 90/108/152
f 77/95/152 3/75/152 92/109/152
f 91/96/152 11/110/152 78/97/152
f 77/95/152 92/109/152 91/96/152
f 90/108/152 78/97/152 11/110/152
f 2/111/153 75/100/153 86/112/153
f 76/98/153 81/113/153 7/114/153
f 88/99/153 87/115/153 75/100/153
f 76/98/153 7/114/153 88/99/153
f 86/112/153 75/100/153 87/115/153
f 3/75/154 77/95/154 93/116/154
f 79/98/154 1/106/154 96/117/154
f 96/117/154 95/118/154 79/98/154
f 94/101/154 93/116/154 77/95/154
f 79/98/154 95/118/154 94/101/154
f 82/119/155 80/95/155 8/120/155
f 78/97/155 83/121/155 89/122/155
f 10/102/155 9/123/155 80/95/155
f 78/97/155 89/122/155 10/102/155
f 8/120/155 80/95/155 9/123/155
f 1/106/156 79/98/156 5/124/156
f 75/100/156 2/125/156 6/126/156
f 6/126/156 85/127/156 75/100/156
f 5/124/156 79/98/156 84/103/156
f 85/127/156 84/103/156 75/100/156
f 81/113/157 76/98/157 12/128/157
f 80/95/157 82/119/157 14/129/157
f 12/128/157 76/98/157 13/105/157
f 80/95/157 14/129/157 97/104/157
f 13/105/157 76/98/157 80/95/157
